<svg width="1440" height="1024" viewBox="0 0 1440 1024" fill="none" xmlns="http://www.w3.org/2000/svg">
<path d="M0 317.381C2.28349 317.212 5.71478 315.24 7.8426 315.977C14.0737 318.136 24.0269 327.539 27.8547 331.618C58.247 364.004 83.9294 403.605 104.996 449.523C176.885 606.216 202.528 803.634 223.92 986.916" stroke="url(#paint0_linear_154_7)" stroke-opacity="0.1" stroke-width="6"/>
<g clip-path="url(#clip0_154_7)">
<path d="M985.89 1.19629C982.804 168.825 1017.88 519.553 1182.89 581.447C1347.9 643.34 1351.38 894.297 1332.49 1012.04" stroke="url(#paint1_linear_154_7)" stroke-width="6"/>
</g>
<path d="M1078.34 513.582C846.179 499.028 382.889 578.659 387.028 1013.62" stroke="url(#paint2_linear_154_7)" stroke-width="6"/>
<defs>
<linearGradient id="paint0_linear_154_7" x1="260.065" y1="942.654" x2="-95.4986" y2="357.236" gradientUnits="userSpaceOnUse">
<stop offset="0.035112" stop-color="#728773"/>
<stop offset="0.260325" stop-color="#87A330"/>
<stop offset="0.731271" stop-color="#CAD593"/>
<stop offset="0.942607" stop-color="#728773"/>
</linearGradient>
<linearGradient id="paint1_linear_154_7" x1="998.406" y1="48.4486" x2="1476.37" y2="888.432" gradientUnits="userSpaceOnUse">
<stop offset="0.0104167" stop-color="#728773"/>
<stop offset="0.229167" stop-color="#CAD593"/>
<stop offset="0.776042" stop-color="#87A330"/>
<stop offset="1" stop-color="#728773"/>
</linearGradient>
<linearGradient id="paint2_linear_154_7" x1="1042.6" y1="503.414" x2="338.019" y2="798.168" gradientUnits="userSpaceOnUse">
<stop stop-color="#728773"/>
<stop offset="0.213542" stop-color="#CAD593"/>
<stop offset="0.71875" stop-color="#87A330"/>
<stop offset="1" stop-color="#728773"/>
</linearGradient>
<clipPath id="clip0_154_7">
<rect width="360.235" height="1013.23" fill="white" transform="translate(982.887)"/>
</clipPath>
</defs>
</svg>
