<svg width="324" height="332" viewBox="0 0 324 332" fill="none" xmlns="http://www.w3.org/2000/svg">
<g clip-path="url(#clip0_81_311)">
<path d="M161.515 331.196C250.717 331.196 323.03 257.055 323.03 165.598C323.03 74.1408 250.717 0 161.515 0C72.3127 0 0 74.1408 0 165.598C0 257.055 72.3127 331.196 161.515 331.196Z" fill="#D9D9D9"/>
<g clip-path="url(#clip1_81_311)">
<path d="M261.498 168.703C260.674 167.794 258.203 166.576 255.397 165.697C255.293 164.884 255.097 164.101 254.8 163.377C253.84 161.057 251.959 159.612 249.508 159.311C245.273 158.799 240.663 160.795 237.357 162.676C230.685 139.398 211.184 120.066 185.128 111.926C187.031 107.922 188.126 103.467 188.126 98.7421C188.126 81.727 174.278 67.8794 157.259 67.8794C140.244 67.8794 126.4 81.727 126.4 98.7421C126.4 103.637 127.575 108.246 129.606 112.362C120.761 115.291 112.414 119.519 105.191 124.933C96.986 120.652 88.0257 120.717 81.9595 125.246L78.8688 127.55L89.059 141.201C83.9989 148.192 80.3757 155.816 78.2601 163.928H73.9551C67.3647 163.929 62 169.293 62 175.887V210.327C62 216.921 67.3647 222.285 73.9551 222.285H91.0091C96.008 228.587 102.074 234.109 109.092 238.746V254.855C109.092 259.734 112.638 263.704 116.996 263.704H131.684C136.043 263.704 139.588 259.734 139.588 254.855V251.298C150.85 253.615 162.327 253.827 174.089 251.692V255.276C174.089 260.155 177.635 264.121 181.994 264.121H196.681C201.04 264.121 204.586 260.156 204.586 255.276V240.215C226.727 226.599 239.869 204.415 239.869 180.451C239.869 175.726 239.291 171.094 238.289 166.573C241.299 164.723 245.581 162.696 249.034 163.139C250.067 163.266 250.749 163.771 251.184 164.719C248.814 164.38 246.663 164.515 245.504 165.483C243.858 166.855 243.137 169.148 243.712 171.187C244.328 173.383 246.251 174.875 248.992 175.284C249.211 175.314 249.432 175.334 249.651 175.334C251.108 175.334 252.465 174.61 253.524 173.249C254.307 172.247 254.866 170.991 255.182 169.645C256.819 170.193 258.199 170.809 258.65 171.291C259.371 172.081 260.585 172.139 261.371 171.422C262.157 170.704 262.215 169.494 261.498 168.703ZM157.259 75.5912C170.031 75.5912 180.418 85.9775 180.418 98.7457C180.418 103.509 178.969 107.941 176.494 111.622L176.363 111.807C176.258 111.961 176.139 112.099 176.031 112.25C175.588 112.863 175.118 113.452 174.624 114.011C174.493 114.165 174.354 114.311 174.22 114.462C173.73 114.986 173.221 115.487 172.693 115.961C172.574 116.065 172.458 116.177 172.339 116.281C170.986 117.44 169.522 118.447 167.953 119.26C167.899 119.29 167.845 119.314 167.791 119.341C167.078 119.707 166.349 120.03 165.606 120.319C165.444 120.385 165.278 120.439 165.112 120.501C164.465 120.739 163.806 120.94 163.135 121.117C162.927 121.171 162.723 121.229 162.511 121.279C161.855 121.429 161.189 121.545 160.522 121.645C160.307 121.676 160.102 121.718 159.887 121.742C159.016 121.838 158.141 121.9 157.254 121.9C156.376 121.9 155.504 121.843 154.637 121.742C154.456 121.723 154.279 121.684 154.094 121.661C153.392 121.564 152.699 121.441 152.009 121.28C151.851 121.245 151.696 121.199 151.542 121.16C150.818 120.971 150.097 120.76 149.392 120.501C149.295 120.463 149.192 120.428 149.095 120.393C145.8 119.137 142.794 117.136 140.346 114.524C140.281 114.454 140.223 114.385 140.158 114.312C139.606 113.715 139.09 113.083 138.604 112.419C138.485 112.254 138.354 112.092 138.234 111.926L138.026 111.64C135.544 107.952 134.095 103.52 134.095 98.7487C134.108 85.9775 144.491 75.5912 157.259 75.5912ZM198.736 234.722L196.681 235.913L196.874 255.272C196.874 255.877 196.65 256.27 196.52 256.409L182.202 256.459C182.094 256.386 181.797 255.974 181.797 255.273V242.103L177.068 243.205C163.247 246.42 149.751 246.131 136.713 242.712L131.88 241.448V254.852C131.88 255.557 131.58 255.97 131.684 255.993L117.212 256.043C117.104 255.97 116.803 255.557 116.803 254.852L116.796 238.141L117.493 234.923L115.184 233.494C107.542 228.75 101.082 222.899 95.9876 216.112L94.8314 214.575H73.9551C71.6157 214.575 69.7082 212.671 69.7082 210.324V175.884C69.7082 173.541 71.6121 171.633 73.9551 171.633H84.4301L85.0778 168.577C86.9853 159.54 90.9629 151.138 96.9021 143.596L98.7287 141.272L90.1384 129.756C93.9421 128.832 98.9218 129.961 103.458 132.82L105.786 134.289L107.928 132.566C115.424 126.542 124.389 121.871 133.989 118.965C134.073 119.066 134.181 119.154 134.266 119.254C134.852 119.91 135.465 120.546 136.109 121.151C136.271 121.305 136.44 121.451 136.606 121.602C137.246 122.18 137.905 122.731 138.591 123.255C138.756 123.378 138.918 123.501 139.084 123.625C139.377 123.841 139.659 124.076 139.963 124.28C134.906 125.56 130.02 127.352 125.441 129.676C123.541 130.64 122.789 132.96 123.753 134.856C124.717 136.76 127.037 137.516 128.933 136.548C137.716 132.085 147.767 129.727 157.984 129.727C168.748 129.727 179.262 132.328 188.373 137.249C188.955 137.565 189.583 137.712 190.204 137.712C191.572 137.712 192.902 136.983 193.599 135.692C194.613 133.819 193.912 131.479 192.042 130.47C186.7 127.587 180.939 125.429 174.942 124.011C175.131 123.876 175.312 123.73 175.501 123.595C175.763 123.398 176.029 123.206 176.284 123.009C176.881 122.539 177.455 122.045 178.014 121.533C178.253 121.317 178.492 121.113 178.724 120.893C179.337 120.296 179.922 119.672 180.485 119.024C180.601 118.893 180.731 118.778 180.847 118.639C211.189 127.26 232.171 152.365 232.171 180.445C232.157 202.33 219.667 222.621 198.736 234.722ZM250.483 170.881C250.248 171.174 249.944 171.463 249.551 171.471C248.865 171.366 247.678 171.062 247.42 170.141C247.254 169.56 247.489 168.839 247.89 168.492C248.117 168.384 248.46 168.333 248.903 168.333C249.581 168.333 250.472 168.449 251.439 168.646C251.243 169.544 250.9 170.342 250.483 170.881ZM115.146 167.617C115.146 171.158 112.275 174.03 108.734 174.03C105.192 174.03 102.321 171.158 102.321 167.617C102.321 164.075 105.192 161.204 108.734 161.204C112.275 161.204 115.146 164.075 115.146 167.617Z" fill="black"/>
</g>
</g>
<defs>
<clipPath id="clip0_81_311">
<rect width="324" height="332" fill="white"/>
</clipPath>
<clipPath id="clip1_81_311">
<rect width="200" height="200" fill="white" transform="translate(62 66)"/>
</clipPath>
</defs>
</svg>
