<svg width="71" height="70" viewBox="0 0 71 70" fill="none" xmlns="http://www.w3.org/2000/svg">
<path d="M56.7554 50.8285H14.3406C12.562 50.8285 11.1199 49.3866 11.1199 47.6079V22.3925C11.1199 20.6137 12.562 19.1716 14.3408 19.1716H56.7554C58.5342 19.1716 59.9763 20.6137 59.9763 22.3925V47.6076C59.9763 49.3866 58.5342 50.8285 56.7554 50.8285Z" fill="#F9F9F9"/>
<path d="M42.6746 45.5212C48.4264 45.5212 53.0891 40.8584 53.0891 35.1067C53.0891 29.3549 48.4264 24.6921 42.6746 24.6921C36.9228 24.6921 32.26 29.3549 32.26 35.1067C32.26 40.8584 36.9228 45.5212 42.6746 45.5212Z" fill="#FFC601"/>
<path d="M28.6506 45.5212C34.4024 45.5212 39.0652 40.8584 39.0652 35.1067C39.0652 29.3549 34.4024 24.6921 28.6506 24.6921C22.8989 24.6921 18.2361 29.3549 18.2361 35.1067C18.2361 40.8584 22.8989 45.5212 28.6506 45.5212Z" fill="#F43735"/>
<path d="M56.7554 50.8285H14.3406C12.562 50.8285 11.1199 49.3866 11.1199 47.6079V22.3925C11.1199 20.6137 12.562 19.1716 14.3408 19.1716H56.7554C58.5342 19.1716 59.9763 20.6137 59.9763 22.3925V47.6076C59.9763 49.3866 58.5342 50.8285 56.7554 50.8285Z" stroke="#303030" stroke-width="0.8" stroke-miterlimit="10" stroke-linecap="round" stroke-linejoin="round"/>
<path d="M22.2916 33.621C22.0995 34.7368 21.9075 35.8528 21.7131 36.9821C21.3998 36.9821 21.0921 36.9821 20.7563 36.9821C21.021 35.4227 21.2842 33.8717 21.5501 32.3058C22.0287 32.3058 22.4994 32.3058 23.0312 32.3058C23.0312 33.2142 23.0312 34.1246 23.0312 35.0352C23.0585 35.0373 23.086 35.0395 23.1133 35.0417C23.2888 34.5298 23.4645 34.0179 23.64 33.5061C23.7608 33.1533 23.8765 32.7989 24.0067 32.4496C24.0305 32.3854 24.1099 32.298 24.1655 32.2968C24.6388 32.2845 25.1122 32.2896 25.6317 32.2896C25.369 33.8635 25.1101 35.414 24.8487 36.98C24.5131 36.98 24.183 36.98 23.831 36.98C24.0064 35.8813 24.1803 34.7892 24.3543 33.697C24.3398 33.6932 24.325 33.6894 24.3106 33.6856C24.2744 33.7762 24.2361 33.866 24.2028 33.9578C23.8608 34.8995 23.5141 35.8395 23.1838 36.7855C23.1233 36.9589 23.0423 37.0176 22.8685 36.9997C22.7314 36.9857 22.5915 36.997 22.4208 36.997C22.3902 35.8634 22.3599 34.747 22.3296 33.6307C22.3168 33.6275 22.3041 33.6242 22.2916 33.621Z" fill="white"/>
<path d="M49.1325 33.5803C49.2056 33.1429 49.2747 32.7301 49.3468 32.2983C49.6698 32.2983 49.9921 32.2983 50.3401 32.2983C50.2654 32.7606 50.1911 33.2242 50.1154 33.6875C49.9464 34.7232 49.7722 35.758 49.6118 36.7947C49.5878 36.9498 49.5279 36.9862 49.3873 36.9812C49.1398 36.9726 48.8917 36.9789 48.6279 36.9789C48.6279 36.8711 48.6279 36.7827 48.6279 36.6918C48.4601 36.7846 48.3136 36.8887 48.1508 36.9513C47.5008 37.2006 46.8568 36.8997 46.6239 36.2087C46.3059 35.2645 46.4891 34.3866 47.1165 33.6272C47.6863 32.9374 48.3826 32.9298 49.1325 33.5803ZM48.8809 34.8329C48.8603 34.6958 48.8539 34.5544 48.8167 34.422C48.7092 34.0378 48.3143 33.8925 47.9943 34.1303C47.8691 34.2233 47.7605 34.3603 47.689 34.5001C47.5225 34.8256 47.4867 35.1796 47.538 35.5414C47.5715 35.7767 47.6566 35.9801 47.9065 36.0564C48.15 36.1307 48.4054 36.0302 48.5781 35.7969C48.7893 35.5118 48.8684 35.1847 48.8809 34.8329Z" fill="white"/>
<path d="M27.401 34.5731C27.5234 34.2023 27.4099 34.0017 27.0386 34.0019C26.6166 34.0021 26.1947 34.0534 25.76 34.0836C25.7779 33.9754 25.8012 33.8327 25.8253 33.6901C25.8979 33.2599 25.8944 33.2336 26.3241 33.1748C26.7122 33.1215 27.115 33.0851 27.5012 33.1296C28.1292 33.2019 28.4953 33.7173 28.4154 34.345C28.3073 35.1925 28.1863 36.0387 28.0633 36.8843C28.0547 36.9436 27.9875 37.0381 27.9431 37.041C27.6972 37.0564 27.45 37.0484 27.1913 37.0484C27.1913 36.9308 27.1913 36.8409 27.1913 36.778C26.9476 36.8872 26.7147 37.0343 26.461 37.0965C25.8245 37.2521 25.3337 36.8845 25.2634 36.2365C25.1604 35.285 25.7422 34.644 26.7794 34.5752C26.9871 34.5612 27.1965 34.5731 27.401 34.5731ZM27.2932 35.3785C26.9359 35.3163 26.6337 35.3614 26.4371 35.4963C26.2013 35.658 26.1275 36.009 26.2865 36.2123C26.4392 36.4076 26.7781 36.4006 26.9893 36.1885C27.2083 35.9684 27.2904 35.6935 27.2932 35.3785Z" fill="white"/>
<path d="M43.6367 34.5701C43.7272 34.1563 43.6334 33.9989 43.2451 33.996C42.8372 33.9928 42.4286 34.0474 41.9933 34.0784C42.0264 33.8674 42.0608 33.6119 42.1115 33.3593C42.1202 33.3157 42.1933 33.2694 42.2458 33.2523C42.7325 33.0945 43.2276 33.0169 43.7385 33.1164C44.3571 33.2372 44.7233 33.7304 44.6401 34.3554C44.5221 35.241 44.3923 36.125 44.2648 37.0279C43.9867 37.0279 43.7113 37.0279 43.4242 37.0279C43.4242 36.9299 43.4242 36.8324 43.4242 36.7094C43.338 36.7761 43.2677 36.8337 43.1943 36.8868C42.8112 37.1647 42.2707 37.2107 41.9195 36.9838C41.4913 36.7069 41.4422 36.2742 41.4967 35.8268C41.5882 35.078 42.1474 34.6198 42.9986 34.5718C43.2073 34.5601 43.4173 34.5701 43.6367 34.5701ZM43.5273 35.3651C43.2134 35.3239 42.9312 35.3258 42.6751 35.4882C42.4866 35.6077 42.3975 35.7954 42.4498 36.0056C42.4792 36.1233 42.5754 36.2674 42.6796 36.3142C42.8754 36.4018 43.0742 36.3342 43.2272 36.1735C43.436 35.9544 43.507 35.6835 43.5273 35.3651Z" fill="white"/>
<path d="M33.956 35.4664C33.8996 35.8446 34.057 36.0975 34.4142 36.1991C34.8033 36.3096 35.1849 36.2421 35.562 36.1306C35.6583 36.1021 35.7534 36.0702 35.8883 36.0274C35.8316 36.3407 35.7842 36.6291 35.722 36.9142C35.7125 36.957 35.6372 37.0023 35.5844 37.0161C35.0807 37.1475 34.5715 37.186 34.0624 37.0549C33.4487 36.8967 33.0872 36.49 32.9818 35.8733C32.8415 35.0513 33.0004 34.2916 33.544 33.6417C33.8901 33.2279 34.3415 33.0239 34.8871 33.0898C35.7472 33.194 36.2143 33.857 36.0954 34.787C36.0109 35.4484 36.0109 35.4483 35.3447 35.4488C34.9011 35.4489 34.4575 35.4497 34.0142 35.451C33.9995 35.451 33.9847 35.4584 33.956 35.4664ZM34.0359 34.654C34.3751 34.654 34.6986 34.6573 35.0219 34.6497C35.0677 34.6488 35.1399 34.6022 35.1529 34.5616C35.2421 34.2839 35.0105 33.9656 34.7183 33.9512C34.3502 33.933 34.0881 34.1903 34.0359 34.654Z" fill="white"/>
<path d="M41.7505 32.4424C41.6989 32.7818 41.6487 33.1108 41.5969 33.4534C41.3856 33.3817 41.1877 33.2967 40.9814 33.2479C40.4716 33.1274 40.0326 33.2942 39.7434 33.7296C39.3902 34.2613 39.2943 34.8541 39.4371 35.4706C39.5608 36.0052 40.0359 36.2822 40.5796 36.1628C40.7814 36.1188 40.9768 36.0438 41.1939 35.977C41.1419 36.3062 41.0953 36.6274 41.0358 36.9465C41.0273 36.992 40.9596 37.0553 40.9136 37.0605C40.5681 37.1003 40.2154 37.1831 39.8759 37.1475C39.1029 37.067 38.6243 36.6129 38.4453 35.8527C38.2593 35.0632 38.3321 34.2879 38.6664 33.551C39.2286 32.3112 40.4369 31.8765 41.7505 32.4424Z" fill="white"/>
<path d="M31.0451 33.1621C31.0026 33.4619 30.9655 33.7232 30.9248 34.0111C30.7156 34.0017 30.5165 33.9913 30.3174 33.9841C29.9486 33.9712 29.7561 34.0444 29.7257 34.2313C29.6759 34.5378 29.9331 34.6064 30.1316 34.6898C30.673 34.9176 31.0143 35.2972 30.8336 36.1742C30.7467 36.5961 30.4678 36.8578 30.0614 36.9628C29.4854 37.1113 28.9081 37.0528 28.3069 36.9362C28.3501 36.6448 28.3902 36.3724 28.4284 36.1132C28.775 36.1454 29.1031 36.1818 29.4321 36.2023C29.5291 36.2083 29.6361 36.1855 29.7257 36.1465C29.9416 36.0525 29.9822 35.8039 29.7986 35.6556C29.6675 35.5497 29.5099 35.4754 29.36 35.3942C28.8132 35.0976 28.6048 34.6903 28.7073 34.1091C28.8076 33.5388 29.155 33.213 29.7565 33.115C30.1831 33.0456 30.6028 33.0814 31.0451 33.1621Z" fill="white"/>
<path d="M31.6252 32.6133C31.9727 32.6133 32.2812 32.6133 32.6081 32.6133C32.5815 32.8004 32.5569 32.9735 32.53 33.1629C32.6909 33.1707 32.8352 33.1775 33.0062 33.1859C32.9669 33.4902 32.9297 33.7795 32.8895 34.0899C32.7204 34.0899 32.5609 34.0899 32.3724 34.0899C32.3102 34.4552 32.2503 34.8035 32.1918 35.1521C32.1609 35.3359 32.1333 35.5201 32.1029 35.704C32.0471 36.0409 32.1584 36.1654 32.5032 36.1481C32.5566 36.1456 32.6099 36.1394 32.6933 36.1322C32.6582 36.3876 32.6291 36.6305 32.5878 36.8714C32.5806 36.9135 32.5263 36.9757 32.488 36.9801C32.1977 37.0147 31.9015 37.0813 31.6162 37.0519C31.2696 37.0166 31.0567 36.7342 31.0717 36.349C31.0887 35.9162 31.1483 35.4835 31.2151 35.0546C31.3416 34.2423 31.4863 33.4331 31.6252 32.6133Z" fill="white"/>
<path d="M45.5503 37.0241C45.1947 37.0241 44.8625 37.0241 44.5193 37.0241C44.7292 35.7389 44.937 34.4675 45.1468 33.1833C45.4593 33.1833 45.7581 33.1833 46.0777 33.1833C46.0573 33.335 46.0379 33.4788 46.0123 33.6711C46.2808 33.3735 46.5069 33.0607 46.9437 33.1308C46.8235 33.5091 46.7052 33.8818 46.5855 34.2582C46.2528 34.2691 46.1098 34.3452 46.0135 34.7046C45.8754 35.2208 45.7848 35.7499 45.6795 36.2747C45.6294 36.5242 45.5926 36.7764 45.5503 37.0241Z" fill="white"/>
<path d="M37.0987 37.0287C36.744 37.0287 36.4185 37.0287 36.0692 37.0287C36.1485 36.5309 36.2246 36.0435 36.304 35.5568C36.4242 34.8204 36.5502 34.0852 36.6646 33.348C36.6852 33.2143 36.7264 33.1593 36.8677 33.1652C37.1147 33.1755 37.3623 33.1681 37.6275 33.1681C37.6045 33.338 37.5849 33.4826 37.5589 33.6733C37.8284 33.3726 38.0559 33.0598 38.493 33.1308C38.3719 33.5108 38.2528 33.8843 38.1333 34.2599C37.8095 34.2652 37.6604 34.3416 37.5673 34.6874C37.4265 35.2109 37.3339 35.7475 37.2268 36.2797C37.1778 36.5225 37.1429 36.7679 37.0987 37.0287Z" fill="white"/>
<path d="M19.2884 38.2227H19.4617C19.4235 38.1141 19.3776 38.0096 19.3431 37.8994L19.2884 38.2227Z" fill="white"/>
<path d="M38.0323 30.6064C37.4344 29.3231 36.5739 28.1856 35.5239 27.2668C33.6864 25.6189 31.2948 24.6418 28.6552 24.6418C22.9239 24.6418 18.301 29.2793 18.301 34.996C18.301 40.7127 22.9239 45.3502 28.6552 45.3502C31.2948 45.3502 33.6864 44.3731 35.5239 42.7252C36.5156 41.8648 37.3323 40.8002 37.9156 39.6043" stroke="#303030" stroke-width="0.8" stroke-miterlimit="10" stroke-linecap="round" stroke-linejoin="round"/>
<path d="M33.0156 30.6064C33.6135 29.3231 34.4739 28.1856 35.5239 27.2668C37.3614 25.6189 39.7531 24.6418 42.3927 24.6418C48.1093 24.6418 52.7468 29.2793 52.7468 34.996C52.7468 40.7127 48.1093 45.3502 42.3927 45.3502C39.7531 45.3502 37.3614 44.3731 35.5239 42.7252C34.5323 41.8648 33.7156 40.8002 33.1177 39.6043" stroke="#303030" stroke-width="0.8" stroke-miterlimit="10" stroke-linecap="round" stroke-linejoin="round"/>
</svg>
