<svg width="50" height="50" viewBox="0 0 50 50" fill="none" xmlns="http://www.w3.org/2000/svg">
<g opacity="0.61">
<path d="M21.3765 46.1172L20.8204 47.4017H20.5268L19.9726 46.1172H20.2938L20.6846 47.0347L21.081 46.1172H21.3765Z" fill="white"/>
<path d="M22.3507 46.974H21.6038C21.6313 47.097 21.7359 47.1722 21.8864 47.1722C21.991 47.1722 22.0662 47.141 22.1341 47.0768L22.2864 47.2419C22.1947 47.3465 22.057 47.4016 21.879 47.4016C21.5377 47.4016 21.3156 47.1869 21.3156 46.8933C21.3156 46.5979 21.5413 46.385 21.8423 46.385C22.1322 46.385 22.3561 46.5795 22.3561 46.897C22.3562 46.919 22.3526 46.9502 22.3507 46.974ZM21.6002 46.807H22.0865C22.0663 46.6822 21.9727 46.6015 21.8443 46.6015C21.7139 46.6015 21.6204 46.6804 21.6002 46.807Z" fill="white"/>
<path d="M22.4735 46.8933C22.4735 46.596 22.7029 46.385 23.024 46.385C23.2314 46.385 23.3947 46.4749 23.4663 46.6364L23.2443 46.7557C23.1911 46.6621 23.1122 46.6199 23.0222 46.6199C22.8772 46.6199 22.7635 46.7208 22.7635 46.8933C22.7635 47.0658 22.8773 47.1667 23.0222 47.1667C23.1121 47.1667 23.191 47.1263 23.2443 47.0309L23.4663 47.152C23.3947 47.3098 23.2314 47.4015 23.024 47.4015C22.7029 47.4016 22.4735 47.1906 22.4735 46.8933Z" fill="white"/>
<path d="M24.2828 47.3393C24.2241 47.3815 24.1378 47.4017 24.0497 47.4017C23.8167 47.4017 23.6809 47.2824 23.6809 47.0475V46.642H23.5286V46.4218H23.6809V46.1814H23.9672V46.4218H24.2131V46.642H23.9672V47.0439C23.9672 47.1283 24.013 47.1742 24.0901 47.1742C24.1323 47.1742 24.1745 47.1614 24.2057 47.1375L24.2828 47.3393Z" fill="white"/>
<path d="M26.2474 46.3997V46.664C26.2236 46.6622 26.2052 46.6603 26.1832 46.6603C26.0254 46.6603 25.9208 46.7465 25.9208 46.9356V47.4017H25.6345V46.4144H25.9079V46.5447C25.9776 46.4493 26.0951 46.3997 26.2474 46.3997Z" fill="white"/>
<path d="M26.3299 47.253L26.4308 47.0291C26.5391 47.108 26.7005 47.163 26.8547 47.163C27.0309 47.163 27.1024 47.1043 27.1024 47.0254C27.1024 46.785 26.3555 46.9502 26.3555 46.473C26.3555 46.2546 26.5317 46.073 26.8968 46.073C27.0583 46.073 27.2235 46.1115 27.3427 46.1868L27.2509 46.4125C27.1316 46.3446 27.0087 46.3116 26.8949 46.3116C26.7188 46.3116 26.6509 46.3776 26.6509 46.4584C26.6509 46.6951 27.3977 46.5318 27.3977 47.0034C27.3977 47.2181 27.2197 47.4016 26.8527 47.4016C26.6492 47.4017 26.4437 47.3411 26.3299 47.253Z" fill="white"/>
<path d="M28.5428 46.974H27.7959C27.8234 47.097 27.928 47.1722 28.0785 47.1722C28.1831 47.1722 28.2583 47.141 28.3262 47.0768L28.4785 47.2419C28.3867 47.3465 28.2491 47.4016 28.0711 47.4016C27.7298 47.4016 27.5077 47.1869 27.5077 46.8933C27.5077 46.5979 27.7334 46.385 28.0344 46.385C28.3244 46.385 28.5482 46.5795 28.5482 46.897C28.5484 46.919 28.5447 46.9502 28.5428 46.974ZM27.7923 46.807H28.2786C28.2584 46.6822 28.1648 46.6015 28.0364 46.6015C27.9061 46.6015 27.8125 46.6804 27.7923 46.807Z" fill="white"/>
<path d="M29.7007 46.974H28.9538C28.9813 47.097 29.0859 47.1722 29.2364 47.1722C29.341 47.1722 29.4162 47.141 29.4841 47.0768L29.6364 47.2419C29.5446 47.3465 29.407 47.4016 29.229 47.4016C28.8877 47.4016 28.6656 47.1869 28.6656 46.8933C28.6656 46.5979 28.8913 46.385 29.1923 46.385C29.4822 46.385 29.7061 46.5795 29.7061 46.897C29.7062 46.919 29.7025 46.9502 29.7007 46.974ZM28.9501 46.807H29.4364C29.4162 46.6822 29.3226 46.6015 29.1942 46.6015C29.0639 46.6015 28.9703 46.6804 28.9501 46.807Z" fill="white"/>
<path d="M30.3208 47.0144L30.1831 47.1502V47.4016H29.8969V46.04H30.1831V46.8107L30.6016 46.4143H30.9429L30.5318 46.8327L30.9796 47.4016H30.6327L30.3208 47.0144Z" fill="white"/>
<path d="M25.6601 47.5358L25.3741 47.2498C25.3306 47.3006 25.2788 47.3441 25.2207 47.3782C25.2115 47.3851 25.2021 47.3918 25.1924 47.3981L25.4951 47.7008C25.5407 47.7464 25.6146 47.7464 25.6601 47.7008C25.7057 47.6553 25.7057 47.5814 25.6601 47.5358Z" fill="white"/>
<path d="M24.9984 46.3244C25.0205 46.3071 25.0479 46.2963 25.0781 46.2963C25.0823 46.2963 25.0864 46.2965 25.0905 46.2969C25.0691 46.2813 25.0427 46.272 25.0141 46.272C24.9746 46.272 24.9397 46.29 24.916 46.3178C24.9109 46.3178 24.906 46.3184 24.9009 46.3186C24.9048 46.3109 24.9073 46.3024 24.9073 46.2931C24.9073 46.2697 24.893 46.2497 24.8727 46.2412C24.8814 46.2538 24.8865 46.2691 24.8865 46.2857C24.8865 46.2979 24.8834 46.3094 24.8784 46.3198C24.5973 46.3399 24.3754 46.5737 24.3754 46.8598C24.3754 47.1591 24.618 47.4018 24.9174 47.4018C25.2167 47.4018 25.4594 47.1592 25.4594 46.8598C25.4595 46.5879 25.2593 46.3635 24.9984 46.3244ZM24.7983 46.4656C24.8418 46.4656 24.8827 46.4768 24.9182 46.4965C24.9556 46.472 25.0002 46.4578 25.0481 46.4578C25.1192 46.4578 25.1829 46.489 25.2265 46.5384C25.183 46.5005 25.1261 46.4774 25.0638 46.4774C25.0189 46.4774 24.9768 46.4894 24.9404 46.5103C24.9325 46.5149 24.9248 46.5199 24.9175 46.5253C24.911 46.5205 24.9042 46.516 24.8971 46.5119C24.8602 46.49 24.8171 46.4775 24.7711 46.4775C24.7411 46.4775 24.7123 46.4829 24.6857 46.4927C24.7196 46.4754 24.7578 46.4656 24.7983 46.4656ZM25.1772 46.9098C25.1887 46.9403 25.1953 46.9732 25.1953 47.0077C25.1953 47.1611 25.0709 47.2854 24.9175 47.2854C24.7641 47.2854 24.6398 47.1611 24.6398 47.0077C24.6398 46.9732 24.6464 46.9403 24.6579 46.9098C24.5959 46.8716 24.5544 46.8034 24.5544 46.7252C24.5544 46.6055 24.6515 46.5084 24.7712 46.5084C24.8277 46.5084 24.879 46.5302 24.9175 46.5656C24.9561 46.5302 25.0074 46.5084 25.0639 46.5084C25.1836 46.5084 25.2807 46.6055 25.2807 46.7252C25.2807 46.8034 25.2392 46.8716 25.1772 46.9098Z" fill="white"/>
<path d="M25.1666 46.7061C25.1666 46.7558 25.1262 46.7962 25.0765 46.7962C25.0268 46.7962 24.9864 46.7558 24.9864 46.7061C24.9864 46.6564 25.0268 46.616 25.0765 46.616C25.0866 46.616 25.0962 46.6177 25.1052 46.6207C25.1022 46.6269 25.1007 46.6339 25.1007 46.6411C25.1007 46.6684 25.1228 46.6905 25.1501 46.6905C25.1551 46.6905 25.16 46.6897 25.1647 46.6883C25.166 46.6941 25.1666 46.7 25.1666 46.7061Z" fill="white"/>
<path d="M24.8255 46.706C24.8255 46.7436 24.795 46.7741 24.7574 46.7741C24.7198 46.7741 24.6893 46.7436 24.6893 46.706C24.6893 46.6684 24.7198 46.6379 24.7574 46.6379C24.765 46.6379 24.7723 46.6392 24.7791 46.6414C24.7768 46.6461 24.7757 46.6514 24.7757 46.6569C24.7757 46.6775 24.7924 46.6943 24.8131 46.6943C24.8169 46.6943 24.8206 46.6937 24.8241 46.6926C24.825 46.6969 24.8255 46.7014 24.8255 46.706Z" fill="white"/>
<path d="M24.3524 46.783H24.2908V46.8446H24.3524V46.783Z" fill="white"/>
<path d="M25.5443 46.783H25.4827V46.8446H25.5443V46.783Z" fill="white"/>
<path d="M25.5205 46.8081H25.5065C25.5065 46.4833 25.2423 46.2191 24.9175 46.2191C24.5927 46.2191 24.3285 46.4833 24.3285 46.8081H24.3145C24.3145 46.647 24.3772 46.4956 24.4911 46.3817C24.605 46.2678 24.7564 46.2051 24.9175 46.2051C25.0786 46.2051 25.23 46.2678 25.3439 46.3817C25.4578 46.4956 25.5205 46.647 25.5205 46.8081Z" fill="white"/>
<path d="M24.9484 46.1814H24.8868V46.243H24.9484V46.1814Z" fill="white"/>
<path d="M25.34 46.2051H24.495V46.2191H25.34V46.2051Z" fill="white"/>
<path d="M24.5174 46.2149C24.5174 46.2257 24.5086 46.2345 24.4978 46.2345C24.487 46.2345 24.4782 46.2257 24.4782 46.2149C24.4782 46.2041 24.487 46.1953 24.4978 46.1953C24.5086 46.1953 24.5174 46.2041 24.5174 46.2149Z" fill="white"/>
<path d="M25.3596 46.2149C25.3596 46.2257 25.3508 46.2345 25.34 46.2345C25.3292 46.2345 25.3204 46.2257 25.3204 46.2149C25.3204 46.2041 25.3292 46.1953 25.34 46.1953C25.3509 46.1953 25.3596 46.2041 25.3596 46.2149Z" fill="white"/>
<path d="M31.4356 47.3407C31.4356 47.4966 31.1992 47.4966 31.1992 47.3407C31.1993 47.1849 31.4356 47.1849 31.4356 47.3407Z" fill="white"/>
<path d="M16.1739 46.6548L16.3511 47.2636L16.5366 46.6548H16.7581L16.4758 47.4688H16.2428L16.1591 47.2292L16.0869 46.9584L16.0147 47.2292L15.931 47.4688H15.698L15.4141 46.6548H15.6372L15.8227 47.2636L15.9983 46.6548H16.1739Z" fill="white"/>
<path d="M17.6713 46.6548L17.8485 47.2636L18.034 46.6548H18.2555L17.9732 47.4688H17.7402L17.6565 47.2292L17.5843 46.9584L17.5121 47.2292L17.4284 47.4688H17.1954L16.9115 46.6548H17.1346L17.3201 47.2636L17.4957 46.6548H17.6713Z" fill="white"/>
<path d="M19.1687 46.6548L19.3459 47.2636L19.5314 46.6548H19.7529L19.4706 47.4688H19.2376L19.1539 47.2292L19.0817 46.9584L19.0095 47.2292L18.9258 47.4688H18.6928L18.4089 46.6548H18.632L18.8175 47.2636L18.9931 46.6548H19.1687Z" fill="white"/>
<path d="M20.0908 47.352C20.0908 47.5079 19.8544 47.5079 19.8544 47.352C19.8545 47.1962 20.0908 47.1962 20.0908 47.352Z" fill="white"/>
<path d="M32.271 47.3409C32.1775 47.4328 32.0791 47.4689 31.9593 47.4689C31.7247 47.4689 31.5293 47.3278 31.5293 47.0407C31.5293 46.7536 31.7246 46.6123 31.9593 46.6123C32.0742 46.6123 32.1628 46.6452 32.2514 46.7322L32.125 46.8651C32.0774 46.8223 32.0184 46.8011 31.9627 46.8011C31.8281 46.8011 31.7297 46.8996 31.7297 47.0407C31.7297 47.1949 31.8347 47.2769 31.9594 47.2769C32.0234 47.2769 32.0874 47.2589 32.1366 47.2097L32.271 47.3409Z" fill="white"/>
<path d="M33.1805 47.0472C33.1805 47.2802 33.0214 47.4689 32.7588 47.4689C32.4962 47.4689 32.3387 47.2802 32.3387 47.0472C32.3387 46.8158 32.4996 46.6255 32.7572 46.6255C33.0149 46.6255 33.1805 46.8158 33.1805 47.0472ZM32.5389 47.0472C32.5389 47.1703 32.6128 47.2852 32.7588 47.2852C32.9048 47.2852 32.9787 47.1703 32.9787 47.0472C32.9787 46.9257 32.8933 46.8076 32.7588 46.8076C32.6144 46.8077 32.5389 46.9258 32.5389 47.0472Z" fill="white"/>
<path d="M33.8572 47.4688V47.0356C33.8572 46.9288 33.8013 46.8321 33.6914 46.8321C33.5832 46.8321 33.5192 46.9288 33.5192 47.0356V47.4688H33.3189V46.6581H33.5044L33.5192 46.7566C33.5618 46.6746 33.6554 46.645 33.7325 46.645C33.8294 46.645 33.9262 46.6844 33.9721 46.796C34.0444 46.6811 34.1379 46.6482 34.2429 46.6482C34.4726 46.6482 34.5859 46.7894 34.5859 47.0322V47.4687H34.3856V47.0322C34.3856 46.9256 34.3414 46.8352 34.233 46.8352C34.1248 46.8352 34.0574 46.9287 34.0574 47.0355V47.4687H33.8572V47.4688Z" fill="white"/>
</g>
<g opacity="0.61">
<path d="M34.5988 43.1299C34.5982 43.0075 34.5029 42.9178 34.3799 42.9159C34.2875 42.9145 34.2967 42.9279 34.2965 42.8292C34.2962 42.7195 34.2958 42.6098 34.2968 42.5C34.2971 42.4621 34.2856 42.4309 34.2606 42.4024C34.0264 42.1356 33.7928 41.8682 33.5587 41.6013C33.5467 41.5876 33.5312 41.5769 33.5173 41.5647C32.8959 41.5647 32.2746 41.5647 31.6532 41.5647C31.5738 41.594 31.5392 41.6515 31.5394 41.7356C31.5404 42.1104 31.5398 42.4852 31.5398 42.8599C31.5398 42.9155 31.5395 42.9188 31.4848 42.915C31.3351 42.9048 31.2332 43.0136 31.2351 43.1642C31.2395 43.5118 31.2364 43.8595 31.2365 44.2071C31.2366 44.3651 31.3232 44.4514 31.4815 44.452C31.5397 44.4522 31.5397 44.4522 31.5397 44.512C31.5397 44.7339 31.5396 44.9558 31.5398 45.1777C31.5399 45.2969 31.5978 45.3548 31.7166 45.3548C32.5179 45.3549 33.3193 45.3549 34.1206 45.3548C34.2374 45.3548 34.2961 45.2965 34.2963 45.1803C34.2965 44.9547 34.2963 44.7291 34.2964 44.5035C34.2964 44.4523 34.2966 44.4524 34.3484 44.452C34.3755 44.4518 34.4025 44.4528 34.4293 44.4462C34.5289 44.4216 34.5983 44.3418 34.5987 44.2393C34.6003 43.8696 34.6005 43.4997 34.5988 43.1299ZM31.7537 41.7162C32.2874 41.7162 32.8211 41.7162 33.3547 41.7162C33.4095 41.7162 33.4101 41.7169 33.4101 41.7723C33.4102 41.9966 33.41 42.2209 33.4102 42.4453C33.4103 42.5264 33.4351 42.5512 33.5162 42.5512C33.7072 42.5513 33.8983 42.5512 34.0893 42.5513C34.1351 42.5513 34.1372 42.5534 34.1374 42.5996C34.1377 42.6883 34.1376 42.7771 34.1374 42.8658C34.1373 42.9135 34.135 42.9156 34.087 42.9157C33.6975 42.9158 33.308 42.9157 32.9186 42.9157C32.5304 42.9157 32.1421 42.9157 31.7539 42.9157C31.6989 42.9157 31.6987 42.9156 31.6987 42.8596C31.6986 42.4972 31.6986 42.1349 31.6987 41.7725C31.6987 41.7166 31.6991 41.7162 31.7537 41.7162ZM34.0822 45.1579C33.6939 45.158 33.3056 45.1579 32.9172 45.1579C32.5301 45.1579 32.143 45.1579 31.7559 45.1579C31.6987 45.1579 31.6985 45.1577 31.6985 45.1C31.6984 44.9003 31.6984 44.7006 31.6986 44.5009C31.6986 44.4545 31.7009 44.4523 31.7464 44.4522C32.5267 44.4521 33.3071 44.4521 34.0874 44.4522C34.1352 44.4522 34.1373 44.4542 34.1373 44.5025C34.1375 44.7022 34.1374 44.9019 34.1373 45.1016C34.1375 45.1574 34.137 45.1579 34.0822 45.1579Z" fill="white"/>
<path d="M32.9175 41.7053H32.7418V41.8107H32.9175V41.7053Z" fill="white"/>
<path d="M32.7419 41.8108H32.5662V41.9162H32.7419V41.8108Z" fill="white"/>
<path d="M32.9175 41.916H32.7418V42.0214H32.9175V41.916Z" fill="white"/>
<path d="M32.7419 42.0215H32.5662V42.1269H32.7419V42.0215Z" fill="white"/>
<path d="M32.9175 42.127H32.7418V42.2324H32.9175V42.127Z" fill="white"/>
<path d="M32.7419 42.2324H32.5662V42.3378H32.7419V42.2324Z" fill="white"/>
<path d="M32.9175 42.3379H32.7418V42.4433H32.9175V42.3379Z" fill="white"/>
<path d="M32.7419 42.4431H32.5662V42.5485H32.7419V42.4431Z" fill="white"/>
<path d="M32.9175 42.5486H32.7418V42.654H32.9175V42.5486Z" fill="white"/>
<path d="M32.7419 42.6541H32.5662V42.7595H32.7419V42.6541Z" fill="white"/>
<path d="M32.9175 42.7595H32.7418V42.8649H32.9175V42.7595Z" fill="white"/>
<path d="M32.7419 42.8647H32.5662V42.9701H32.7419V42.8647Z" fill="white"/>
<path d="M18.7637 43.1299C18.7631 43.0075 18.6678 42.9178 18.5448 42.9159C18.4524 42.9145 18.4616 42.9279 18.4614 42.8292C18.4611 42.7195 18.4607 42.6098 18.4617 42.5C18.462 42.4621 18.4505 42.4309 18.4255 42.4024C18.1913 42.1356 17.9577 41.8682 17.7236 41.6013C17.7116 41.5876 17.6961 41.5769 17.6822 41.5647C17.0608 41.5647 16.4395 41.5647 15.8181 41.5647C15.7387 41.594 15.7041 41.6515 15.7043 41.7356C15.7053 42.1104 15.7047 42.4852 15.7047 42.8599C15.7047 42.9155 15.7044 42.9188 15.6497 42.915C15.5 42.9048 15.3981 43.0136 15.4 43.1642C15.4044 43.5118 15.4013 43.8595 15.4014 44.2071C15.4015 44.3651 15.4881 44.4514 15.6464 44.452C15.7046 44.4522 15.7046 44.4522 15.7046 44.512C15.7046 44.7339 15.7045 44.9558 15.7047 45.1777C15.7048 45.2969 15.7627 45.3548 15.8815 45.3548C16.6828 45.3549 17.4842 45.3549 18.2855 45.3548C18.4023 45.3548 18.461 45.2965 18.4612 45.1803C18.4614 44.9547 18.4612 44.7291 18.4613 44.5035C18.4613 44.4523 18.4615 44.4524 18.5133 44.452C18.5404 44.4518 18.5674 44.4528 18.5942 44.4462C18.6938 44.4216 18.7632 44.3418 18.7636 44.2393C18.7652 43.8696 18.7655 43.4997 18.7637 43.1299ZM15.9187 41.7162C16.4524 41.7162 16.9861 41.7162 17.5197 41.7162C17.5745 41.7162 17.5751 41.7169 17.5751 41.7723C17.5752 41.9966 17.575 42.2209 17.5752 42.4453C17.5753 42.5264 17.6001 42.5512 17.6812 42.5512C17.8722 42.5513 18.0633 42.5512 18.2543 42.5513C18.3001 42.5513 18.3022 42.5534 18.3024 42.5996C18.3027 42.6883 18.3026 42.7771 18.3024 42.8658C18.3023 42.9135 18.3 42.9156 18.252 42.9157C17.8625 42.9158 17.473 42.9157 17.0836 42.9157C16.6954 42.9157 16.3071 42.9157 15.9189 42.9157C15.8639 42.9157 15.8637 42.9156 15.8637 42.8596C15.8636 42.4972 15.8636 42.1349 15.8637 41.7725C15.8636 41.7166 15.864 41.7162 15.9187 41.7162ZM18.2472 45.1579C17.8589 45.158 17.4706 45.1579 17.0822 45.1579C16.6951 45.1579 16.308 45.1579 15.9209 45.1579C15.8637 45.1579 15.8635 45.1577 15.8635 45.1C15.8634 44.9003 15.8634 44.7006 15.8636 44.5009C15.8636 44.4545 15.8659 44.4523 15.9114 44.4522C16.6917 44.4521 17.4721 44.4521 18.2524 44.4522C18.3002 44.4522 18.3023 44.4542 18.3023 44.5025C18.3025 44.7022 18.3024 44.9019 18.3023 45.1016C18.3024 45.1574 18.3019 45.1579 18.2472 45.1579Z" fill="white"/>
<path d="M15.9779 44.0668V43.2771H16.2558C16.2933 43.2771 16.3284 43.2832 16.3611 43.2953C16.3938 43.3074 16.4223 43.3245 16.4466 43.3466C16.4708 43.3687 16.49 43.3949 16.5039 43.4255C16.5179 43.456 16.5249 43.4897 16.5249 43.5264C16.5249 43.5639 16.5179 43.5979 16.5039 43.6284C16.4899 43.6589 16.4708 43.6852 16.4466 43.7073C16.4223 43.7294 16.3938 43.7465 16.3611 43.7586C16.3284 43.7707 16.2933 43.7768 16.2558 43.7768H16.1268V44.0669H15.9779V44.0668ZM16.258 43.6355C16.297 43.6355 16.3264 43.6244 16.3462 43.6024C16.3661 43.5804 16.376 43.555 16.376 43.5263C16.376 43.5123 16.3736 43.4987 16.3688 43.4855C16.364 43.4723 16.3567 43.4607 16.3467 43.4508C16.3368 43.4409 16.3244 43.433 16.3097 43.4271C16.295 43.4212 16.2777 43.4182 16.2579 43.4182H16.1267V43.6355H16.258Z" fill="white"/>
<path d="M16.6308 43.2771H16.8039L17.1216 43.8065H17.1304L17.1216 43.6543V43.2771H17.2694V44.0668H17.1128L16.7775 43.5076H16.7687L16.7775 43.6598V44.0668H16.6308V43.2771Z" fill="white"/>
<path d="M17.7922 43.6334H18.1794C18.1816 43.6423 18.1834 43.6529 18.1849 43.6654C18.1863 43.6779 18.1871 43.6904 18.1871 43.7029C18.1871 43.7536 18.1794 43.8014 18.164 43.8463C18.1486 43.8912 18.1243 43.9312 18.0912 43.9665C18.0559 44.004 18.0136 44.0331 17.9644 44.0536C17.9151 44.0742 17.8589 44.0845 17.7956 44.0845C17.7382 44.0845 17.6842 44.0742 17.6334 44.0536C17.5827 44.033 17.5386 44.0044 17.5011 43.9676C17.4636 43.9309 17.4338 43.8873 17.4117 43.8369C17.3896 43.7865 17.3786 43.7316 17.3786 43.672C17.3786 43.6125 17.3896 43.5575 17.4117 43.5071C17.4338 43.4567 17.4635 43.4132 17.5011 43.3764C17.5386 43.3397 17.5827 43.311 17.6334 43.2904C17.6841 43.2698 17.7382 43.2595 17.7956 43.2595C17.8596 43.2595 17.9167 43.2705 17.9671 43.2926C18.0175 43.3147 18.0606 43.3452 18.0967 43.3841L17.9942 43.4845C17.9684 43.4573 17.9398 43.4365 17.9081 43.4222C17.8765 43.4079 17.8386 43.4007 17.7945 43.4007C17.7584 43.4007 17.7242 43.4072 17.6919 43.42C17.6595 43.4329 17.6312 43.4511 17.6069 43.4746C17.5827 43.4981 17.5633 43.5266 17.549 43.5601C17.5347 43.5936 17.5275 43.6309 17.5275 43.672C17.5275 43.7132 17.5347 43.7505 17.549 43.784C17.5633 43.8175 17.5828 43.846 17.6074 43.8695C17.632 43.893 17.6605 43.9113 17.6929 43.9241C17.7252 43.937 17.7598 43.9434 17.7966 43.9434C17.8385 43.9434 17.8739 43.9373 17.903 43.9252C17.932 43.9131 17.9568 43.8974 17.9774 43.8783C17.9922 43.8651 18.0049 43.8483 18.0155 43.8281C18.0261 43.8079 18.0344 43.7853 18.0403 43.7603H17.7921L17.7922 43.6334Z" fill="white"/>
<path d="M22.4019 43.1299C22.4013 43.0075 22.306 42.9178 22.183 42.9159C22.0906 42.9145 22.0998 42.9279 22.0996 42.8292C22.0993 42.7195 22.0989 42.6098 22.0999 42.5C22.1002 42.4621 22.0887 42.4309 22.0637 42.4024C21.8295 42.1356 21.5959 41.8682 21.3618 41.6013C21.3498 41.5876 21.3343 41.5769 21.3204 41.5647C20.699 41.5647 20.0777 41.5647 19.4563 41.5647C19.3769 41.594 19.3423 41.6515 19.3425 41.7356C19.3435 42.1104 19.3429 42.4852 19.3429 42.8599C19.3429 42.9155 19.3426 42.9188 19.2879 42.915C19.1382 42.9048 19.0363 43.0136 19.0382 43.1642C19.0426 43.5118 19.0395 43.8595 19.0396 44.2071C19.0397 44.3651 19.1263 44.4514 19.2846 44.452C19.3428 44.4522 19.3428 44.4522 19.3428 44.512C19.3428 44.7339 19.3427 44.9558 19.3429 45.1777C19.343 45.2969 19.4009 45.3548 19.5197 45.3548C20.321 45.3549 21.1224 45.3549 21.9237 45.3548C22.0405 45.3548 22.0992 45.2965 22.0994 45.1803C22.0996 44.9547 22.0994 44.7291 22.0995 44.5035C22.0995 44.4523 22.0997 44.4524 22.1515 44.452C22.1786 44.4518 22.2056 44.4528 22.2324 44.4462C22.3321 44.4216 22.4014 44.3418 22.4018 44.2393C22.4034 43.8696 22.4036 43.4997 22.4019 43.1299ZM19.5568 41.7162C20.0905 41.7162 20.6242 41.7162 21.1578 41.7162C21.2126 41.7162 21.2132 41.7169 21.2132 41.7723C21.2133 41.9966 21.2131 42.2209 21.2133 42.4453C21.2134 42.5264 21.2382 42.5512 21.3193 42.5512C21.5103 42.5513 21.7014 42.5512 21.8924 42.5513C21.9382 42.5513 21.9403 42.5534 21.9405 42.5996C21.9408 42.6883 21.9407 42.7771 21.9405 42.8658C21.9404 42.9135 21.9381 42.9156 21.8901 42.9157C21.5006 42.9158 21.1111 42.9157 20.7217 42.9157C20.3335 42.9157 19.9452 42.9157 19.557 42.9157C19.502 42.9157 19.5018 42.9156 19.5018 42.8596C19.5017 42.4972 19.5017 42.1349 19.5018 41.7725C19.5018 41.7166 19.5022 41.7162 19.5568 41.7162ZM21.8854 45.1579C21.4971 45.158 21.1088 45.1579 20.7204 45.1579C20.3333 45.1579 19.9462 45.1579 19.5591 45.1579C19.5019 45.1579 19.5017 45.1577 19.5017 45.1C19.5016 44.9003 19.5016 44.7006 19.5018 44.5009C19.5018 44.4545 19.5041 44.4523 19.5496 44.4522C20.3299 44.4521 21.1103 44.4521 21.8906 44.4522C21.9384 44.4522 21.9405 44.4542 21.9405 44.5025C21.9407 44.7022 21.9406 44.9019 21.9405 45.1016C21.9406 45.1574 21.9401 45.1579 21.8854 45.1579Z" fill="white"/>
<path d="M20.5111 43.2771H20.681L20.9777 44.0668H20.8133L20.7482 43.8782H20.4438L20.3787 44.0668H20.2144L20.5111 43.2771ZM20.6997 43.7415L20.6291 43.5441L20.6004 43.4481H20.5916L20.5629 43.5441L20.4923 43.7415H20.6997Z" fill="white"/>
<path d="M21.1331 43.4536C21.1206 43.4536 21.1086 43.4512 21.0972 43.4464C21.0858 43.4416 21.0759 43.435 21.0674 43.4265C21.059 43.4181 21.0523 43.4083 21.0476 43.3973C21.0428 43.3863 21.0404 43.3741 21.0404 43.3609C21.0404 43.3477 21.0428 43.3355 21.0476 43.3245C21.0524 43.3135 21.059 43.3037 21.0674 43.2953C21.0758 43.2869 21.0858 43.2802 21.0972 43.2755C21.1086 43.2707 21.1205 43.2683 21.1331 43.2683C21.1588 43.2683 21.1809 43.2773 21.1993 43.2953C21.2177 43.3134 21.2269 43.3352 21.2269 43.3609C21.2269 43.3866 21.2177 43.4085 21.1993 43.4265C21.1809 43.4446 21.1589 43.4536 21.1331 43.4536ZM21.0615 44.0669V43.5265H21.206V44.0669H21.0615Z" fill="white"/>
<path d="M26.1044 43.1299C26.1038 43.0075 26.0085 42.9178 25.8855 42.9159C25.7931 42.9145 25.8023 42.9279 25.8021 42.8292C25.8018 42.7195 25.8014 42.6098 25.8024 42.5C25.8027 42.4621 25.7912 42.4309 25.7662 42.4024C25.532 42.1356 25.2984 41.8682 25.0643 41.6013C25.0523 41.5876 25.0368 41.5769 25.0229 41.5647C24.4015 41.5647 23.7802 41.5647 23.1588 41.5647C23.0794 41.594 23.0448 41.6515 23.045 41.7356C23.046 42.1104 23.0454 42.4852 23.0454 42.8599C23.0454 42.9155 23.0451 42.9188 22.9904 42.915C22.8407 42.9048 22.7388 43.0136 22.7407 43.1642C22.7451 43.5118 22.742 43.8595 22.7421 44.2071C22.7422 44.3651 22.8288 44.4514 22.9871 44.452C23.0453 44.4522 23.0453 44.4522 23.0453 44.512C23.0453 44.7339 23.0452 44.9558 23.0454 45.1777C23.0455 45.2969 23.1034 45.3548 23.2222 45.3548C24.0235 45.3549 24.8249 45.3549 25.6262 45.3548C25.743 45.3548 25.8017 45.2965 25.8019 45.1803C25.8021 44.9547 25.8019 44.7291 25.802 44.5035C25.802 44.4523 25.8022 44.4524 25.854 44.452C25.8811 44.4518 25.9081 44.4528 25.9349 44.4462C26.0345 44.4216 26.1039 44.3418 26.1043 44.2393C26.1059 43.8696 26.1061 43.4997 26.1044 43.1299ZM23.2593 41.7162C23.793 41.7162 24.3267 41.7162 24.8603 41.7162C24.9151 41.7162 24.9157 41.7169 24.9157 41.7723C24.9158 41.9966 24.9156 42.2209 24.9158 42.4453C24.9159 42.5264 24.9407 42.5512 25.0218 42.5512C25.2128 42.5513 25.4039 42.5512 25.5949 42.5513C25.6407 42.5513 25.6428 42.5534 25.643 42.5996C25.6433 42.6883 25.6432 42.7771 25.643 42.8658C25.6429 42.9135 25.6406 42.9156 25.5926 42.9157C25.2031 42.9158 24.8136 42.9157 24.4242 42.9157C24.036 42.9157 23.6477 42.9157 23.2595 42.9157C23.2045 42.9157 23.2043 42.9156 23.2043 42.8596C23.2042 42.4972 23.2042 42.1349 23.2043 41.7725C23.2042 41.7166 23.2047 41.7162 23.2593 41.7162ZM25.5878 45.1579C25.1995 45.158 24.8112 45.1579 24.4228 45.1579C24.0357 45.1579 23.6486 45.1579 23.2615 45.1579C23.2043 45.1579 23.2041 45.1577 23.2041 45.1C23.204 44.9003 23.204 44.7006 23.2042 44.5009C23.2042 44.4545 23.2065 44.4523 23.252 44.4522C24.0323 44.4521 24.8127 44.4521 25.593 44.4522C25.6408 44.4522 25.6429 44.4542 25.6429 44.5025C25.6431 44.7022 25.643 44.9019 25.6429 45.1016C25.6431 45.1574 25.6426 45.1579 25.5878 45.1579Z" fill="white"/>
<path d="M23.6361 44.0845C23.6023 44.0845 23.5699 44.0797 23.539 44.0702C23.5081 44.0607 23.4798 44.0463 23.4541 44.0272C23.4284 44.0081 23.406 43.9847 23.3868 43.9572C23.3677 43.9296 23.3526 43.8975 23.3416 43.8607L23.4817 43.8056C23.492 43.8453 23.51 43.8782 23.5357 43.9043C23.5614 43.9304 23.5953 43.9435 23.6372 43.9435C23.6526 43.9435 23.6675 43.9415 23.6819 43.9374C23.6962 43.9334 23.7091 43.9275 23.7205 43.9198C23.7319 43.9121 23.7409 43.9023 23.7475 43.8906C23.7541 43.8788 23.7574 43.8652 23.7574 43.8498C23.7574 43.8351 23.7548 43.8219 23.7497 43.8101C23.7446 43.7984 23.7359 43.7874 23.7238 43.777C23.7117 43.7667 23.6958 43.7568 23.6763 43.7472C23.6568 43.7377 23.6328 43.7277 23.6041 43.7174L23.5556 43.6998C23.5343 43.6925 23.5127 43.6825 23.4911 43.67C23.4694 43.6575 23.4498 43.6424 23.4321 43.6248C23.4144 43.6072 23.3999 43.5864 23.3885 43.5625C23.3771 43.5386 23.3714 43.5116 23.3714 43.4815C23.3714 43.4506 23.3774 43.4218 23.3896 43.3949C23.4017 43.3681 23.419 43.3446 23.4414 43.3243C23.4638 43.3041 23.4906 43.2883 23.5219 43.2769C23.5532 43.2655 23.5879 43.2598 23.6261 43.2598C23.6658 43.2598 23.7001 43.2651 23.7292 43.2758C23.7583 43.2865 23.7829 43.3001 23.8031 43.3166C23.8233 43.3331 23.8397 43.3514 23.8522 43.3712C23.8647 43.3911 23.8739 43.4098 23.8798 43.4275L23.7486 43.4826C23.7412 43.4605 23.7278 43.4407 23.7084 43.423C23.6889 43.4054 23.6622 43.3965 23.6284 43.3965C23.596 43.3965 23.5692 43.404 23.5479 43.4191C23.5266 43.4342 23.5159 43.4539 23.5159 43.4781C23.5159 43.5016 23.5262 43.5217 23.5468 43.5382C23.5674 43.5547 23.6001 43.5707 23.645 43.5862L23.6947 43.6027C23.7263 43.6138 23.7552 43.6264 23.7813 43.6408C23.8074 43.6551 23.8298 43.6722 23.8486 43.6921C23.8673 43.712 23.8817 43.7346 23.8916 43.7599C23.9016 43.7853 23.9065 43.8145 23.9065 43.8476C23.9065 43.8888 23.8982 43.9243 23.8817 43.954C23.8652 43.9838 23.844 44.0082 23.8183 44.0274C23.7925 44.0465 23.7635 44.0609 23.7311 44.0704C23.6986 44.0797 23.667 44.0845 23.6361 44.0845Z" fill="white"/>
<path d="M23.9516 43.2771H24.1126L24.2759 43.7525L24.3046 43.854H24.3134L24.3443 43.7525L24.5142 43.2771H24.6752L24.3873 44.0668H24.2307L23.9516 43.2771Z" fill="white"/>
<path d="M25.1097 43.6334H25.4968C25.499 43.6423 25.5008 43.6529 25.5023 43.6654C25.5038 43.6779 25.5046 43.6904 25.5046 43.7029C25.5046 43.7536 25.4968 43.8014 25.4814 43.8463C25.466 43.8912 25.4417 43.9312 25.4086 43.9665C25.3733 44.004 25.3311 44.0331 25.2818 44.0536C25.2325 44.0742 25.1763 44.0845 25.113 44.0845C25.0556 44.0845 25.0016 44.0742 24.9509 44.0536C24.9002 44.033 24.856 44.0044 24.8185 43.9676C24.781 43.9309 24.7512 43.8873 24.7291 43.8369C24.7071 43.7865 24.696 43.7316 24.696 43.672C24.696 43.6125 24.707 43.5575 24.7291 43.5071C24.7512 43.4567 24.7809 43.4132 24.8185 43.3764C24.856 43.3397 24.9001 43.311 24.9509 43.2904C25.0016 43.2698 25.0556 43.2595 25.113 43.2595C25.177 43.2595 25.2341 43.2705 25.2845 43.2926C25.3349 43.3147 25.3781 43.3452 25.4141 43.3841L25.3115 43.4845C25.2858 43.4573 25.2571 43.4365 25.2254 43.4222C25.1938 43.4079 25.156 43.4007 25.1118 43.4007C25.0758 43.4007 25.0416 43.4072 25.0092 43.42C24.9769 43.4329 24.9485 43.4511 24.9243 43.4746C24.9 43.4981 24.8807 43.5266 24.8664 43.5601C24.8521 43.5936 24.8449 43.6309 24.8449 43.672C24.8449 43.7132 24.8521 43.7505 24.8664 43.784C24.8807 43.8175 24.9002 43.846 24.9249 43.8695C24.9495 43.893 24.978 43.9113 25.0103 43.9241C25.0427 43.937 25.0772 43.9434 25.114 43.9434C25.1559 43.9434 25.1914 43.9373 25.2204 43.9252C25.2494 43.9131 25.2743 43.8974 25.2949 43.8783C25.3096 43.8651 25.3223 43.8483 25.3329 43.8281C25.3436 43.8079 25.3518 43.7853 25.3577 43.7603H25.1095V43.6334H25.1097Z" fill="white"/>
<path d="M29.73 43.1299C29.7294 43.0075 29.6341 42.9178 29.5111 42.9159C29.4187 42.9145 29.4279 42.9279 29.4277 42.8292C29.4274 42.7195 29.427 42.6098 29.428 42.5C29.4283 42.4621 29.4168 42.4309 29.3918 42.4024C29.1576 42.1356 28.924 41.8682 28.6899 41.6013C28.6779 41.5876 28.6624 41.5769 28.6485 41.5647C28.0271 41.5647 27.4058 41.5647 26.7844 41.5647C26.705 41.594 26.6704 41.6515 26.6706 41.7356C26.6716 42.1104 26.671 42.4852 26.671 42.8599C26.671 42.9155 26.6707 42.9188 26.616 42.915C26.4663 42.9048 26.3644 43.0136 26.3663 43.1642C26.3707 43.5118 26.3676 43.8595 26.3677 44.2071C26.3678 44.3651 26.4544 44.4514 26.6127 44.452C26.6709 44.4522 26.6709 44.4522 26.6709 44.512C26.6709 44.7339 26.6708 44.9558 26.671 45.1777C26.6711 45.2969 26.729 45.3548 26.8478 45.3548C27.6491 45.3549 28.4505 45.3549 29.2518 45.3548C29.3686 45.3548 29.4273 45.2965 29.4275 45.1803C29.4277 44.9547 29.4275 44.7291 29.4276 44.5035C29.4276 44.4523 29.4278 44.4524 29.4796 44.452C29.5067 44.4518 29.5337 44.4528 29.5605 44.4462C29.6601 44.4216 29.7295 44.3418 29.7299 44.2393C29.7315 43.8696 29.7318 43.4997 29.73 43.1299ZM26.885 41.7162C27.4187 41.7162 27.9524 41.7162 28.486 41.7162C28.5408 41.7162 28.5414 41.7169 28.5414 41.7723C28.5415 41.9966 28.5413 42.2209 28.5415 42.4453C28.5416 42.5264 28.5664 42.5512 28.6475 42.5512C28.8385 42.5513 29.0296 42.5512 29.2206 42.5513C29.2664 42.5513 29.2685 42.5534 29.2687 42.5996C29.269 42.6883 29.2689 42.7771 29.2687 42.8658C29.2686 42.9135 29.2663 42.9156 29.2183 42.9157C28.8288 42.9158 28.4393 42.9157 28.0499 42.9157C27.6617 42.9157 27.2734 42.9157 26.8852 42.9157C26.8302 42.9157 26.83 42.9156 26.83 42.8596C26.8299 42.4972 26.8299 42.1349 26.83 41.7725C26.8299 41.7166 26.8303 41.7162 26.885 41.7162ZM29.2135 45.1579C28.8252 45.158 28.4369 45.1579 28.0485 45.1579C27.6614 45.1579 27.2743 45.1579 26.8872 45.1579C26.83 45.1579 26.8298 45.1577 26.8298 45.1C26.8297 44.9003 26.8297 44.7006 26.8299 44.5009C26.8299 44.4545 26.8322 44.4523 26.8777 44.4522C27.658 44.4521 28.4384 44.4521 29.2187 44.4522C29.2665 44.4522 29.2686 44.4542 29.2686 44.5025C29.2687 44.7022 29.2687 44.9019 29.2686 45.1016C29.2687 45.1574 29.2682 45.1579 29.2135 45.1579Z" fill="white"/>
<path d="M27.2966 43.4182V43.6013H27.6131V43.7425H27.2966V43.9256H27.6484V44.0668H27.1477V43.2771H27.6484V43.4183L27.2966 43.4182Z" fill="white"/>
<path d="M27.7852 44.0668V43.2771H28.0631C28.1006 43.2771 28.1357 43.2832 28.1684 43.2953C28.2011 43.3074 28.2296 43.3245 28.2539 43.3466C28.2782 43.3687 28.2973 43.3949 28.3113 43.4255C28.3253 43.456 28.3322 43.4897 28.3322 43.5264C28.3322 43.5639 28.3252 43.5979 28.3113 43.6284C28.2973 43.6589 28.2782 43.6852 28.2539 43.7073C28.2296 43.7294 28.2011 43.7465 28.1684 43.7586C28.1357 43.7707 28.1006 43.7768 28.0631 43.7768H27.9341V44.0669H27.7852V44.0668ZM28.0653 43.6355C28.1042 43.6355 28.1337 43.6244 28.1535 43.6024C28.1734 43.5804 28.1833 43.555 28.1833 43.5263C28.1833 43.5123 28.1809 43.4987 28.1761 43.4855C28.1713 43.4723 28.164 43.4607 28.154 43.4508C28.1441 43.4409 28.1318 43.433 28.117 43.4271C28.1023 43.4212 28.085 43.4182 28.0652 43.4182H27.934V43.6355H28.0653Z" fill="white"/>
<path d="M28.6797 44.0845C28.6459 44.0845 28.6135 44.0797 28.5826 44.0702C28.5517 44.0607 28.5234 44.0463 28.4977 44.0272C28.472 44.0081 28.4495 43.9847 28.4304 43.9572C28.4113 43.9296 28.3962 43.8975 28.3852 43.8607L28.5253 43.8056C28.5356 43.8453 28.5536 43.8782 28.5794 43.9043C28.6051 43.9304 28.6389 43.9435 28.6809 43.9435C28.6963 43.9435 28.7112 43.9415 28.7256 43.9374C28.7399 43.9334 28.7528 43.9275 28.7642 43.9198C28.7756 43.9121 28.7846 43.9023 28.7912 43.8906C28.7978 43.8788 28.8012 43.8652 28.8012 43.8498C28.8012 43.8351 28.7986 43.8219 28.7935 43.8101C28.7884 43.7984 28.7797 43.7874 28.7676 43.777C28.7555 43.7667 28.7397 43.7568 28.7202 43.7472C28.7007 43.7377 28.6766 43.7277 28.6479 43.7174L28.5994 43.6998C28.5781 43.6925 28.5566 43.6825 28.5349 43.67C28.5132 43.6575 28.4935 43.6424 28.4759 43.6248C28.4583 43.6072 28.4437 43.5864 28.4323 43.5625C28.4209 43.5386 28.4152 43.5116 28.4152 43.4815C28.4152 43.4506 28.4213 43.4218 28.4334 43.3949C28.4455 43.3681 28.4628 43.3446 28.4852 43.3243C28.5076 43.3041 28.5345 43.2883 28.5657 43.2769C28.5969 43.2655 28.6317 43.2598 28.6699 43.2598C28.7096 43.2598 28.744 43.2651 28.773 43.2758C28.802 43.2865 28.8267 43.3001 28.8469 43.3166C28.8671 43.3331 28.8834 43.3514 28.896 43.3712C28.9085 43.3911 28.9177 43.4098 28.9236 43.4275L28.7924 43.4826C28.785 43.4605 28.7716 43.4407 28.7521 43.423C28.7326 43.4054 28.7059 43.3965 28.6722 43.3965C28.6398 43.3965 28.613 43.404 28.5917 43.4191C28.5704 43.4342 28.5597 43.4539 28.5597 43.4781C28.5597 43.5016 28.57 43.5217 28.5906 43.5382C28.6112 43.5547 28.6439 43.5707 28.6888 43.5862L28.7384 43.6027C28.77 43.6138 28.7989 43.6264 28.825 43.6408C28.8511 43.6551 28.8735 43.6722 28.8923 43.6921C28.911 43.712 28.9254 43.7346 28.9353 43.7599C28.9452 43.7853 28.9502 43.8145 28.9502 43.8476C28.9502 43.8888 28.9419 43.9243 28.9254 43.954C28.9089 43.9838 28.8877 44.0082 28.862 44.0274C28.8362 44.0465 28.8072 44.0609 28.7748 44.0704C28.7422 44.0797 28.7105 44.0845 28.6797 44.0845Z" fill="white"/>
<path d="M32.1394 43.9168L32.5398 43.4183H32.1571V43.2771H32.713V43.4271L32.317 43.9256H32.7174V44.0668H32.1395L32.1394 43.9168Z" fill="white"/>
<path d="M32.8409 43.2771H32.9898V44.0668H32.8409V43.2771Z" fill="white"/>
<path d="M33.1486 44.0668V43.2771H33.4265C33.464 43.2771 33.4991 43.2832 33.5318 43.2953C33.5645 43.3074 33.593 43.3245 33.6173 43.3466C33.6416 43.3687 33.6607 43.3949 33.6747 43.4255C33.6887 43.456 33.6956 43.4897 33.6956 43.5264C33.6956 43.5639 33.6886 43.5979 33.6747 43.6284C33.6607 43.6589 33.6416 43.6852 33.6173 43.7073C33.593 43.7294 33.5645 43.7465 33.5318 43.7586C33.4991 43.7707 33.464 43.7768 33.4265 43.7768H33.2975V44.0669H33.1486V44.0668ZM33.4288 43.6355C33.4677 43.6355 33.4972 43.6244 33.517 43.6024C33.5369 43.5804 33.5468 43.555 33.5468 43.5263C33.5468 43.5123 33.5444 43.4987 33.5396 43.4855C33.5348 43.4723 33.5275 43.4607 33.5175 43.4508C33.5076 43.4409 33.4953 43.433 33.4805 43.4271C33.4658 43.4212 33.4485 43.4182 33.4287 43.4182H33.2975V43.6355H33.4288Z" fill="white"/>
</g>
<g opacity="0.61">
<path d="M30.0133 43.3269H30.92V43.5511H30.0133V43.3269ZM30.0133 43.7135H30.92V43.9378H30.0133V43.7135Z" fill="white"/>
</g>
<g opacity="0.61">
<path d="M15.6756 47.8877H15.8363C15.9626 47.8877 16.0477 47.9689 16.0477 48.0851C16.0477 48.2012 15.9626 48.2824 15.8363 48.2824H15.6756V47.8877ZM15.834 48.2463C15.9389 48.2463 16.0065 48.1798 16.0065 48.0851C16.0065 47.9904 15.9388 47.9238 15.834 47.9238H15.7173V48.2463H15.834Z" fill="white"/>
<path d="M16.5139 48.085C16.5139 47.97 16.6018 47.8843 16.7214 47.8843C16.8398 47.8843 16.9283 47.9694 16.9283 48.085C16.9283 48.2006 16.8398 48.2857 16.7214 48.2857C16.6019 48.2857 16.5139 48.2001 16.5139 48.085ZM16.8866 48.085C16.8866 47.9908 16.8161 47.9215 16.7214 47.9215C16.6261 47.9215 16.5551 47.9908 16.5551 48.085C16.5551 48.1791 16.6261 48.2485 16.7214 48.2485C16.8162 48.2485 16.8866 48.1792 16.8866 48.085Z" fill="white"/>
<path d="M17.9596 47.8877L17.8265 48.2824H17.7825L17.6669 47.9458L17.5508 48.2824H17.5074L17.3743 47.8877H17.4172L17.5311 48.2271L17.6489 47.8877H17.6878L17.8039 48.2288L17.9195 47.8877H17.9596Z" fill="white"/>
<path d="M18.7731 47.8877V48.2824H18.7387L18.485 47.9622V48.2824H18.4433V47.8877H18.4777L18.732 48.208V47.8877H18.7731Z" fill="white"/>
<path d="M19.3093 47.8877H19.351V48.2463H19.572V48.2824H19.3093V47.8877Z" fill="white"/>
<path d="M20.0061 48.085C20.0061 47.97 20.094 47.8843 20.2136 47.8843C20.332 47.8843 20.4205 47.9694 20.4205 48.085C20.4205 48.2006 20.332 48.2857 20.2136 48.2857C20.0941 48.2857 20.0061 48.2001 20.0061 48.085ZM20.3788 48.085C20.3788 47.9908 20.3083 47.9215 20.2136 47.9215C20.1183 47.9215 20.0473 47.9908 20.0473 48.085C20.0473 48.1791 20.1183 48.2485 20.2136 48.2485C20.3083 48.2485 20.3788 48.1792 20.3788 48.085Z" fill="white"/>
<path d="M21.1636 48.177H20.9437L20.8963 48.2824H20.8529L21.0333 47.8877H21.0745L21.2549 48.2824H21.2109L21.1636 48.177ZM21.1484 48.1432L21.0537 47.9312L20.959 48.1432H21.1484Z" fill="white"/>
<path d="M21.728 47.8877H21.8887C22.015 47.8877 22.1001 47.9689 22.1001 48.0851C22.1001 48.2012 22.015 48.2824 21.8887 48.2824H21.728V47.8877ZM21.8864 48.2463C21.9913 48.2463 22.0589 48.1798 22.0589 48.0851C22.0589 47.9904 21.9912 47.9238 21.8864 47.9238H21.7697V48.2463H21.8864Z" fill="white"/>
<path d="M23.4041 48.177H23.1842L23.1368 48.2824H23.0934L23.2738 47.8877H23.315L23.4954 48.2824H23.4514L23.4041 48.177ZM23.3889 48.1432L23.2942 47.9312L23.1995 48.1432H23.3889Z" fill="white"/>
<path d="M23.9685 47.8877H24.0102V48.2463H24.2312V48.2824H23.9685V47.8877Z" fill="white"/>
<path d="M24.7082 47.8877H24.7499V48.2463H24.9709V48.2824H24.7082V47.8877Z" fill="white"/>
<path d="M26.0449 47.9237V48.0788H26.249V48.1149H26.0449V48.2824H26.0032V47.8877H26.2738V47.9238L26.0449 47.9237Z" fill="white"/>
<path d="M26.7678 47.8877H26.8095V48.2824H26.7678V47.8877Z" fill="white"/>
<path d="M27.3456 47.8877H27.3873V48.2463H27.6083V48.2824H27.3456V47.8877Z" fill="white"/>
<path d="M28.3644 48.2463V48.2824H28.0853V47.8877H28.3559V47.9238H28.127V48.0642H28.3311V48.0997H28.127V48.2463H28.3644Z" fill="white"/>
<path d="M29.4672 47.9237V48.0788H29.6713V48.1149H29.4672V48.2824H29.4255V47.8877H29.6961V47.9238L29.4672 47.9237Z" fill="white"/>
<path d="M30.15 48.085C30.15 47.97 30.2379 47.8843 30.3575 47.8843C30.4759 47.8843 30.5644 47.9694 30.5644 48.085C30.5644 48.2006 30.4759 48.2857 30.3575 48.2857C30.2379 48.2857 30.15 48.2001 30.15 48.085ZM30.5226 48.085C30.5226 47.9908 30.4521 47.9215 30.3574 47.9215C30.2621 47.9215 30.1911 47.9908 30.1911 48.085C30.1911 48.1791 30.2621 48.2485 30.3574 48.2485C30.4522 48.2485 30.5226 48.1792 30.5226 48.085Z" fill="white"/>
<path d="M31.3351 48.2824L31.2449 48.1555C31.2347 48.1566 31.2246 48.1572 31.2133 48.1572H31.1073V48.2824H31.0656V47.8877H31.2133C31.3137 47.8877 31.3746 47.9384 31.3746 48.023C31.3746 48.085 31.3419 48.1284 31.2844 48.147L31.3808 48.2823H31.3351V48.2824ZM31.3328 48.023C31.3328 47.9598 31.2911 47.9238 31.2121 47.9238H31.1073V48.1217H31.2121C31.2911 48.1217 31.3328 48.085 31.3328 48.023Z" fill="white"/>
<path d="M32.2907 47.8878V48.2825H32.2507V47.9667L32.0956 48.2323H32.0759L31.9208 47.9684V48.2824H31.8808V47.8877H31.9152L32.0866 48.1803L32.2563 47.8877L32.2907 47.8878Z" fill="white"/>
<path d="M33.0744 48.177H32.8545L32.8072 48.2824H32.7638L32.9442 47.8877H32.9853L33.1657 48.2824H33.1217L33.0744 48.177ZM33.0592 48.1432L32.9645 47.9312L32.8698 48.1432H33.0592Z" fill="white"/>
<path d="M33.6957 47.9238H33.557V47.8877H33.8762V47.9238H33.7375V48.2824H33.6958V47.9238H33.6957Z" fill="white"/>
<path d="M34.3063 48.2344L34.3227 48.2023C34.3509 48.2299 34.4011 48.2502 34.4529 48.2502C34.5268 48.2502 34.5589 48.2192 34.5589 48.1803C34.5589 48.072 34.3159 48.1386 34.3159 47.9926C34.3159 47.9345 34.361 47.8843 34.4614 47.8843C34.506 47.8843 34.5522 47.8973 34.5838 47.9193L34.5697 47.9526C34.5359 47.9306 34.4964 47.9199 34.4614 47.9199C34.3892 47.9199 34.3571 47.952 34.3571 47.9915C34.3571 48.0998 34.6001 48.0344 34.6001 48.1781C34.6001 48.2362 34.5539 48.2858 34.4529 48.2858C34.3937 48.2856 34.3356 48.2648 34.3063 48.2344Z" fill="white"/>
</g>
<path d="M25 47.5C37.4264 47.5 47.5 37.4264 47.5 25C47.5 12.5736 37.4264 2.5 25 2.5C12.5736 2.5 2.5 12.5736 2.5 25C2.5 37.4264 12.5736 47.5 25 47.5Z" fill="#F9F9F9"/>
<path d="M31.7408 11.3708C26.4574 12.0225 21.354 12.9857 16.2385 14.4683C15.5724 14.6776 15.1622 15.4229 15.3301 16.0848C15.7039 17.5588 15.8925 18.2979 16.2729 19.7763C16.4338 20.4014 17.0625 20.7222 17.7 20.5103C22.9266 18.9013 28.1664 17.8007 33.5726 16.9996C34.1922 16.9167 34.5301 16.2757 34.3023 15.6328C33.8224 14.278 33.581 13.6025 33.0904 12.2555C32.8821 11.6837 32.3174 11.3082 31.7408 11.3708Z" fill="#212E7D"/>
<path d="M36.1599 19.5762C27.8889 20.631 19.8334 22.6766 12.196 26.0574C11.6389 26.3209 11.3064 27.0219 11.4233 27.6396C11.7226 29.2198 11.8732 30.0106 12.1788 31.5938C12.3093 32.2708 12.9417 32.5824 13.565 32.2783C21.3226 28.7236 29.5193 26.4619 37.9292 25.1125C38.4637 25.0249 38.7364 24.4114 38.5319 23.7801C38.1083 22.4711 37.8943 21.8175 37.4578 20.5147C37.2551 19.9093 36.7043 19.5049 36.1599 19.5762Z" fill="#FEC801"/>
<path d="M36.0609 28.3887C30.8965 29.5097 25.8476 30.8606 20.847 32.5796C20.2128 32.8126 19.856 33.4814 20.0226 34.0971C20.4201 35.5641 20.619 36.2999 21.0214 37.7714C21.2104 38.4627 21.9881 38.8165 22.7025 38.5441C27.7013 36.7531 32.7483 35.1893 37.9078 33.9356C38.4026 33.8154 38.647 33.2345 38.4631 32.6355C38.0569 31.3144 37.8519 30.6552 37.4342 29.34C37.2292 28.6937 36.6302 28.2715 36.0609 28.3887Z" fill="#EA241D"/>
</svg>
