<svg width="324" height="332" viewBox="0 0 324 332" fill="none" xmlns="http://www.w3.org/2000/svg">
<ellipse cx="161.515" cy="165.598" rx="161.515" ry="165.598" fill="#D9D9D9"/>
<path d="M162 70C143.013 70 124.452 75.6303 108.665 86.1789C92.8781 96.7275 80.5736 111.721 73.3075 129.262C66.0415 146.804 64.1404 166.107 67.8446 184.729C71.5488 203.351 80.6919 220.456 94.1177 233.882C107.544 247.308 124.649 256.451 143.271 260.155C161.893 263.86 181.196 261.958 198.738 254.692C216.279 247.426 231.272 235.122 241.821 219.335C252.37 203.548 258 184.987 258 166C258 140.539 247.886 116.121 229.882 98.1178C211.879 80.1143 187.461 70 162 70ZM162 254C144.595 254 127.581 248.839 113.11 239.169C98.6383 229.5 87.3591 215.756 80.6986 199.676C74.0381 183.596 72.2954 165.902 75.6909 148.832C79.0864 131.762 87.4676 116.082 99.7746 103.775C112.082 91.4676 127.762 83.0864 144.832 79.6909C161.902 76.2954 179.596 78.0381 195.676 84.6986C211.756 91.3591 225.5 102.638 235.169 117.11C244.839 131.581 250 148.595 250 166C250 189.339 240.729 211.722 224.225 228.225C207.722 244.729 185.339 254 162 254Z" fill="black"/>
<path d="M162 167.64C148.209 167.64 134.982 173.118 125.23 182.87C115.479 192.622 110 205.849 110 219.64C110 220.701 110.421 221.718 111.172 222.468C111.922 223.218 112.939 223.64 114 223.64C115.061 223.64 116.078 223.218 116.828 222.468C117.579 221.718 118 220.701 118 219.64C118 207.97 122.636 196.779 130.887 188.527C139.139 180.276 150.33 175.64 162 175.64C173.67 175.64 184.861 180.276 193.113 188.527C201.364 196.779 206 207.97 206 219.64C206 220.701 206.421 221.718 207.172 222.468C207.922 223.218 208.939 223.64 210 223.64C211.061 223.64 212.078 223.218 212.828 222.468C213.579 221.718 214 220.701 214 219.64C214 212.811 212.655 206.049 210.042 199.74C207.428 193.431 203.598 187.699 198.77 182.87C193.941 178.042 188.208 174.211 181.9 171.598C175.591 168.985 168.829 167.64 162 167.64Z" fill="black"/>
<path d="M162 160.84C165.681 160.742 169.306 159.918 172.668 158.417C176.031 156.915 179.064 154.765 181.594 152.09C184.124 149.415 186.102 146.267 187.414 142.827C188.726 139.386 189.347 135.721 189.24 132.04C189.352 128.356 188.735 124.686 187.426 121.241C186.116 117.796 184.139 114.643 181.608 111.964C179.078 109.284 176.043 107.131 172.678 105.627C169.313 104.123 165.684 103.298 162 103.2C158.316 103.298 154.687 104.123 151.322 105.627C147.957 107.131 144.922 109.284 142.392 111.964C139.861 114.643 137.884 117.796 136.574 121.241C135.265 124.686 134.648 128.356 134.76 132.04C134.653 135.721 135.274 139.386 136.586 142.827C137.898 146.267 139.876 149.415 142.406 152.09C144.936 154.765 147.969 156.915 151.332 158.417C154.694 159.918 158.319 160.742 162 160.84ZM162 111.2C164.634 111.298 167.223 111.915 169.617 113.017C172.012 114.119 174.165 115.683 175.953 117.619C177.741 119.556 179.129 121.827 180.036 124.302C180.943 126.777 181.353 129.406 181.24 132.04C181.347 134.67 180.934 137.296 180.024 139.766C179.114 142.236 177.726 144.502 175.939 146.435C174.151 148.367 172 149.928 169.608 151.027C167.216 152.126 164.631 152.742 162 152.84C159.369 152.742 156.784 152.126 154.392 151.027C152 149.928 149.849 148.367 148.061 146.435C146.274 144.502 144.886 142.236 143.976 139.766C143.066 137.296 142.653 134.67 142.76 132.04C142.647 129.406 143.057 126.777 143.964 124.302C144.871 121.827 146.259 119.556 148.047 117.619C149.835 115.683 151.988 114.119 154.383 113.017C156.777 111.915 159.366 111.298 162 111.2Z" fill="black"/>
</svg>
