<svg width="50" height="50" viewBox="0 0 50 50" fill="none" xmlns="http://www.w3.org/2000/svg">
<g clip-path="url(#clip0_83_83)">
<path d="M25.0584 49.7969C38.7236 49.7969 49.8013 38.695 49.8013 25.0001C49.8013 11.3053 38.7236 0.203369 25.0584 0.203369C11.3933 0.203369 0.315552 11.3053 0.315552 25.0001C0.315552 38.695 11.3933 49.7969 25.0584 49.7969Z" fill="url(#paint0_radial_83_83)"/>
<path d="M31.7317 18.8997H25.8744C25.8481 18.8997 25.8218 18.896 25.796 18.9013C24.864 19.1039 23.1076 20.0587 23.1166 22.1441C23.0682 22.9464 23.4188 24.2236 25.0929 24.756C25.098 24.756 29.2682 24.756 29.2682 24.756C29.4531 24.756 30.5933 25.0174 30.5176 27.0106C30.4412 29.0201 28.7317 29.2813 28.4858 29.5475H22.0162C21.8122 29.5475 21.6467 29.7423 21.6467 29.9468C21.6467 30.1512 21.8122 30.346 22.0162 30.346H28.5214C28.5423 30.346 28.5631 30.2486 28.5838 30.2449C29.472 30.0926 31.1732 29.1796 31.2563 26.9955C31.3636 24.1709 29.3246 23.9925 29.3038 23.9912C29.3068 23.9904 25.1827 23.9792 25.1827 23.9792C23.7748 23.721 23.8507 22.2229 23.855 22.1577C23.8555 22.1486 23.8558 22.172 23.8558 22.163C23.8406 20.2711 25.6345 19.6983 25.9179 19.6983H31.732C31.936 19.6983 32.1014 19.5034 32.1014 19.299C32.1012 19.0946 31.9357 18.8997 31.7317 18.8997Z" fill="white"/>
<path d="M40.6499 18.8579C40.6162 18.8483 40.5811 18.8997 40.5461 18.8997H36.1695C34.1883 18.8997 33.2935 21.1988 33.2566 21.2991C33.2505 21.3154 33.246 21.3034 33.242 21.3204C33.1966 21.5262 32.1299 26.3614 32.1657 27.9577C32.2 29.4596 33.7262 30.0055 34.5283 30.0915C34.5416 30.0931 34.5548 30.0801 34.5684 30.0801H40.6529C40.8595 30.0801 41.0274 29.8879 41.0274 29.6808C41.0274 29.4737 40.8598 29.2815 40.6529 29.2815H34.5912C34.4008 29.2815 32.9413 29.0584 32.915 27.896C32.9009 27.272 33.0781 26.0779 33.2916 24.8715L41.7594 24.8081C41.94 24.8068 42.094 24.6798 42.1251 24.5012C42.1416 24.408 42.5219 22.2377 42.5219 20.9363C42.5217 19.3879 40.7264 18.8802 40.6499 18.8579ZM41.438 24.0676L33.429 24.1346C33.6749 22.8268 33.9251 21.7549 33.9673 21.5624C34.0529 21.3481 34.7875 19.698 36.1695 19.698H40.4869C40.7206 19.698 41.7729 20.1122 41.7729 20.9898C41.7729 21.9495 41.5429 23.4138 41.438 24.0676Z" fill="white"/>
<path d="M22.0027 21.1474C22.2223 19.6495 20.3347 18.8997 19.9814 18.8997C19.9809 18.8997 19.9803 18.8997 19.9803 18.8997C18.456 18.8997 16.1469 18.9521 15.906 18.9438C15.8738 18.9404 15.8406 18.9617 15.8072 18.9667C14.8632 19.1174 13.5814 20.3358 13.1697 21.4628L13.1761 21.4706C13.1349 21.5962 13.0988 21.79 13.0438 22.0812C12.9772 22.4334 12.8839 22.9378 12.7726 23.5413C12.5506 24.7471 12.2576 26.3558 11.9655 27.9636C11.3811 31.1789 10.8011 34.3943 10.8011 34.3943C10.7652 34.5926 10.8967 34.7827 11.0946 34.8186C11.1163 34.8226 11.1381 34.8247 11.1596 34.8247C11.3323 34.8247 11.4858 34.7012 11.5174 34.5244C11.7628 33.1653 12.1652 30.9393 12.5684 28.7201C13.519 29.9219 14.7015 30.0481 14.7607 30.0537C14.7753 30.0553 14.7899 30.0564 14.805 30.055L18.5477 29.9478C18.5798 29.947 18.6112 29.9419 18.6417 29.9326C20.4173 29.3989 20.9511 27.5627 20.9732 27.4847C20.9766 27.4716 20.9798 27.4583 20.9819 27.4447L21.9979 21.2081C22.0005 21.1948 22.0008 21.1607 22.0027 21.1474ZM21.276 21.1333L20.2675 27.3026C20.2149 27.4679 19.7511 28.809 18.4776 29.2195L14.8122 29.3243C14.6433 29.3007 13.4996 29.0898 12.7586 27.6753C13.2983 24.7064 13.7939 22.0006 13.8579 21.7133C14.1976 20.7987 15.2964 19.8159 15.9129 19.7102C16.0526 19.7187 16.2436 19.719 16.5078 19.7195C16.8938 19.7201 17.4093 19.7198 17.9243 19.7187C18.7777 19.7174 19.6305 19.7145 19.8975 19.7134C20.3299 19.7102 21.3811 20.4457 21.276 21.1333Z" fill="white"/>
<path d="M5.14371 18.688C5.71917 18.688 6.18568 18.1892 6.18568 17.574C6.18568 16.9587 5.71917 16.46 5.14371 16.46C4.56825 16.46 4.10175 16.9587 4.10175 17.574C4.10175 18.1892 4.56825 18.688 5.14371 18.688Z" fill="#FDB718"/>
<path d="M4.09165 14.0572C4.09165 13.5677 3.79444 13.1564 3.38381 13.0071C3.03693 13.6361 2.71635 14.2819 2.42392 14.9428C2.59869 15.0842 2.81383 15.1712 3.04968 15.1712C3.62525 15.1712 4.09165 14.6724 4.09165 14.0572Z" fill="#FDB718"/>
<path d="M1.98779 17.5738C1.98779 17.2717 1.87438 16.9983 1.69165 16.7976C1.47757 17.4109 1.2866 18.0349 1.12033 18.669C1.61223 18.5798 1.98779 18.1251 1.98779 17.5738Z" fill="#FDB718"/>
<path d="M5.28901 32.26C5.86447 32.26 6.33097 31.7613 6.33097 31.146C6.33097 30.5307 5.86447 30.032 5.28901 30.032C4.71354 30.032 4.24704 30.5307 4.24704 31.146C4.24704 31.7613 4.71354 32.26 5.28901 32.26Z" fill="#FDB718"/>
<path d="M1.60825 31.146C1.60825 30.6815 1.28554 30.3011 0.867218 30.2378C0.985678 30.788 1.1214 31.3319 1.27572 31.868C1.47678 31.6992 1.60825 31.4402 1.60825 31.146Z" fill="#FDB718"/>
<path d="M4.08688 34.7788C4.08688 34.1636 3.62048 33.6648 3.04491 33.6648C2.63402 33.6648 2.28236 33.9211 2.11264 34.2904C2.32831 34.8238 2.56151 35.3482 2.81251 35.8625C2.88741 35.8809 2.9647 35.8926 3.04491 35.8926C3.62021 35.8928 4.08688 35.394 4.08688 34.7788Z" fill="#FDB718"/>
<path d="M5.85553 27.6842H3.76602C3.63056 27.4181 3.24251 26.9599 2.7793 26.9599C2.20373 26.9599 1.73733 27.4827 1.73733 28.0979C1.73733 28.7131 2.20373 29.2335 2.7793 29.2335C3.24251 29.2335 3.63056 29.0149 3.76602 28.4826H5.47651H6.06535H6.11529L8.30679 24.4897H11.6866V23.9573H6.1461L3.86854 19.9644H3.70971H3.12352H0.817013C0.762829 20.229 0.713958 20.4954 0.668009 20.7629H3.53733L5.40134 23.9573H0.332019C0.324848 24.1343 0.319005 24.3116 0.315552 24.4897H7.66801L5.85553 27.6842Z" fill="#FDB718"/>
<path d="M14.4045 15.572H15.5217C15.5217 15.572 15.8491 15.6686 15.7912 16.0546L15.5793 17.5411H14.4043C14.4043 17.5411 13.8842 17.3481 14.1538 16.7883C14.1538 16.7883 14.3995 16.4891 14.6162 16.4891L15.6924 16.5253" stroke="white" stroke-miterlimit="10"/>
<path d="M17.7947 15.572H16.6773C16.6773 15.572 16.2922 15.765 16.1957 16.2671C16.1957 16.2671 15.9357 17.0007 16.2438 17.5411L16.374 17.5701H17.4236" stroke="white" stroke-miterlimit="10"/>
<path d="M18.4398 14.6694L18.2776 15.5721L17.915 17.5893" stroke="white" stroke-miterlimit="10"/>
<path d="M18.2101 15.9476C18.2101 15.9476 18.3437 15.6827 18.5748 15.5717C18.5748 15.5717 19.4175 15.4897 19.5668 15.7021C19.5668 15.7021 19.7354 15.7841 19.7256 16.0256L19.4656 17.541" stroke="white" stroke-miterlimit="10"/>
</g>
<defs>
<radialGradient id="paint0_radial_83_83" cx="0" cy="0" r="1" gradientUnits="userSpaceOnUse" gradientTransform="translate(25.5009 24.9112) scale(24.7424 24.7973)">
<stop offset="0.3155" stop-color="#2D5CA8"/>
<stop offset="0.5312" stop-color="#285496"/>
<stop offset="0.7289" stop-color="#1F4272"/>
<stop offset="1" stop-color="#0D2D4D"/>
</radialGradient>
<clipPath id="clip0_83_83">
<rect width="50" height="50" fill="white"/>
</clipPath>
</defs>
</svg>
